<svg xmlns="http://www.w3.org/2000/svg" viewBox="0 0 560 312">
  <rect width="560" height="312" fill="#f0eeff"/>
  <text x="28" y="46" fill="#1a1060" font-family="Georgia,serif" font-size="24" font-weight="900">发起约定</text>
  <text x="28" y="64" fill="#8a7ab8" font-family="Arial,sans-serif" font-size="9" letter-spacing="1.5">LET EVERYONE MARK WHEN THEY'RE FREE</text>
  <rect x="28" y="80" width="504" height="196" rx="12" fill="#fff"/>
  <g font-family="Arial,sans-serif" font-size="10" font-weight="900" fill="#8a7ab8" text-anchor="middle">
    <text x="64" y="100">日</text><text x="136" y="100">一</text><text x="208" y="100">二</text>
    <text x="280" y="100">三</text><text x="352" y="100">四</text><text x="424" y="100">五</text><text x="496" y="100">六</text>
  </g>
  <line x1="28" y1="106" x2="532" y2="106" stroke="#ebe6fa" stroke-width="1"/>
  <rect x="36" y="112" width="56" height="40" rx="6" fill="#f4f2ff"/>
  <rect x="100" y="112" width="56" height="40" rx="6" fill="#ddd8f8"/>
  <rect x="164" y="112" width="56" height="40" rx="6" fill="#b8aff0"/>
  <rect x="228" y="112" width="56" height="40" rx="6" fill="#6c63ff"/>
  <rect x="292" y="112" width="56" height="40" rx="6" fill="#b8aff0"/>
  <rect x="356" y="112" width="56" height="40" rx="6" fill="#ddd8f8"/>
  <rect x="420" y="112" width="56" height="40" rx="6" fill="#f4f2ff"/>
  <rect x="484" y="112" width="40" height="40" rx="6" fill="#f4f2ff"/>
  <g font-family="Arial,sans-serif" font-size="10" text-anchor="middle" font-weight="700">
    <text x="64" y="128" fill="#c0b8e8">9/1</text><text x="128" y="128" fill="#8a7ab8">9/2</text>
    <text x="192" y="128" fill="#5040c0">9/3</text><text x="256" y="128" fill="#fff">9/4</text>
    <text x="320" y="128" fill="#5040c0">9/5</text><text x="388" y="128" fill="#8a7ab8">9/6</text>
    <text x="452" y="128" fill="#c0b8e8">9/7</text><text x="504" y="128" fill="#c0b8e8">9/8</text>
    <text x="256" y="144" fill="#ffffffcc" font-size="8" font-weight="900">最优</text>
  </g>
  <rect x="36" y="158" width="56" height="40" rx="6" fill="#e8e4f8"/>
  <rect x="100" y="158" width="56" height="40" rx="6" fill="#c8c0f0"/>
  <rect x="164" y="158" width="56" height="40" rx="6" fill="#9088d8"/>
  <rect x="228" y="158" width="56" height="40" rx="6" fill="#c8c0f0"/>
  <rect x="292" y="158" width="56" height="40" rx="6" fill="#e8e4f8"/>
  <rect x="356" y="158" width="56" height="40" rx="6" fill="#f4f2ff"/>
  <rect x="420" y="158" width="56" height="40" rx="6" fill="#f4f2ff"/>
  <rect x="484" y="158" width="40" height="40" rx="6" fill="#f4f2ff"/>
  <g font-family="Arial,sans-serif" font-size="10" text-anchor="middle" font-weight="700">
    <text x="64" y="182" fill="#9088d8">9/8</text><text x="128" y="182" fill="#5040c0">9/9</text>
    <text x="192" y="182" fill="#3030a8">9/10</text><text x="256" y="182" fill="#5040c0">9/11</text>
    <text x="320" y="182" fill="#9088d8">9/12</text><text x="388" y="182" fill="#c0b8e8">9/13</text>
    <text x="452" y="182" fill="#c0b8e8">9/14</text>
  </g>
  <rect x="36" y="204" width="488" height="60" rx="8" fill="#f8f6ff"/>
  <text x="56" y="224" fill="#6a5aaa" font-family="Arial" font-size="10" font-weight="900">时间范围</text>
  <text x="56" y="242" fill="#3030a8" font-family="Arial" font-size="11" font-weight="900">9:00 — 23:00</text>
  <rect x="176" y="236" width="320" height="4" rx="2" fill="#e0daf8"/>
  <rect x="208" y="236" width="256" height="4" rx="2" fill="#6c63ff"/>
  <circle cx="208" cy="238" r="7" fill="#6c63ff"/><circle cx="464" cy="238" r="7" fill="#6c63ff"/>
  <rect x="120" y="284" width="320" height="20" rx="8" fill="#6c63ff"/>
  <text x="280" y="298" text-anchor="middle" fill="#fff" font-family="Arial,sans-serif" font-size="11" font-weight="900">创建活动 →</text>
</svg>
